HIERARCHY
ROOT Hips
{
	OFFSET -3.958830 18.904000 13.208200
	CHANNELS 6 Xposition Yposition Zposition Zrotation Yrotation Xrotation 
	JOINT LHipJoint
	{
		OFFSET 0.000000 0.000000 0.000000
		CHANNELS 3 Zrotation Yrotation Xrotation
		JOINT LeftUpLeg
		{
			OFFSET 1.800000 -1.400000 0.085000
			CHANNELS 3 Zrotation Yrotation Xrotation
			JOINT LeftLeg
			{
				OFFSET 2.215000 -6.000000 0.000000
				CHANNELS 3 Zrotation Yrotation Xrotation
				JOINT LeftFoot
				{
					OFFSET 2.500000 -6.900000 0.000000
					CHANNELS 3 Zrotation Yrotation Xrotation
					JOINT LeftToeBase
					{
						OFFSET 0.200000 -0.500000 1.950000
						CHANNELS 3 Zrotation Yrotation Xrotation
						End Site
						{
							OFFSET 0.000000 0.000000 0.000000
						}
					}
				}
			}
		}
	}
	JOINT RHipJoint
	{
		OFFSET 0.000000 0.000000 0.000000
		CHANNELS 3 Zrotation Yrotation Xrotation
		JOINT RightUpLeg
		{
			OFFSET -1.800000 -1.400000 0.085000
			CHANNELS 3 Zrotation Yrotation Xrotation
			JOINT RightLeg
			{
				OFFSET -2.215000 -6.000000 0.000000
				CHANNELS 3 Zrotation Yrotation Xrotation
				JOINT RightFoot
				{
					OFFSET -2.500000 -6.900000 0.000000
					CHANNELS 3 Zrotation Yrotation Xrotation
					JOINT RightToeBase
					{
						OFFSET -0.200000 -0.500000 1.950000
						CHANNELS 3 Zrotation Yrotation Xrotation
						End Site
						{
							OFFSET 0.000000 0.000000 0.000000
						}
					}
				}
			}
		}
	}
	JOINT LowerBack
	{
		OFFSET 0.000000 0.000000 0.000000
		CHANNELS 3 Zrotation Yrotation Xrotation
		JOINT Spine
		{
			OFFSET -0.087000 1.940000 -0.288900
			CHANNELS 3 Zrotation Yrotation Xrotation
			JOINT Spine1
			{
				OFFSET 0.000000 1.950000 0.060000
				CHANNELS 3 Zrotation Yrotation Xrotation
				JOINT Neck
				{
					OFFSET 0.000000 0.000000 0.000000
					CHANNELS 3 Zrotation Yrotation Xrotation
					JOINT Neck1
					{
						OFFSET 0.000000 1.600000 0.340000
						CHANNELS 3 Zrotation Yrotation Xrotation
						JOINT Head
						{
							OFFSET 0.000000 1.667000 -0.240000
							CHANNELS 3 Zrotation Yrotation Xrotation
							End Site
							{
								OFFSET 0.000000 0.000000 0.000000
							}
						}
					}
				}
				JOINT LeftShoulder
				{
					OFFSET 0.000000 0.000000 0.000000
					CHANNELS 3 Zrotation Yrotation Xrotation
					JOINT LeftArm
					{
						OFFSET 2.700000 1.550000 -0.730000
						CHANNELS 3 Zrotation Yrotation Xrotation
						JOINT LeftForeArm
						{
							OFFSET 5.450000 0.000000 0.000000
							CHANNELS 3 Zrotation Yrotation Xrotation
							JOINT LeftHand
							{
								OFFSET 3.450000 0.000000 0.000000
								CHANNELS 3 Zrotation Yrotation Xrotation
								JOINT LeftHandIndex1
								{
									OFFSET 0.750000 0.000000 0.000000
									CHANNELS 3 Zrotation Yrotation Xrotation
									End Site
									{
										OFFSET 0.000000 0.000000 0.000000
									}
								}
							}
						}
					}
				}
				JOINT RightShoulder
				{
					OFFSET 0.000000 0.000000 0.000000
					CHANNELS 3 Zrotation Yrotation Xrotation
					JOINT RightArm
					{
						OFFSET -2.700000 1.550000 -0.730000
						CHANNELS 3 Zrotation Yrotation Xrotation
						JOINT RightForeArm
						{
							OFFSET -5.450000 0.000000 0.000000
							CHANNELS 3 Zrotation Yrotation Xrotation
							JOINT RightHand
							{
								OFFSET -3.450000 0.000000 0.000000
								CHANNELS 3 Zrotation Yrotation Xrotation
								JOINT RightHandIndex1
								{
									OFFSET -0.750000 0.000000 0.000000
									CHANNELS 3 Zrotation Yrotation Xrotation
									End Site
									{
										OFFSET 0.000000 0.000000 0.000000
									}
								}
							}
						}
					}
				}
			}
		}
	}
}
MOTION
Frames: 9
Frame Time: 0.016667
0.109530 17.432280 -2.945450 -2.630540 -20.018374 -5.621830 -14.389605 12.903321 3.236149 2.404939 -2.342672 -13.911248 -8.382056 4.876072 11.389291 -0.301330 3.185698 3.542436 0.616790 0.440510 0.390360 18.776104 -12.144345 2.862352 -5.786182 0.831056 -5.012603 6.301916 -6.461687 19.145480 -0.729904 -4.296059 2.907709 0.072460 -0.060710 0.274560 -5.197601 0.970612 -7.218694 34.123068 -12.726758 32.757804 -33.046891 -1.268866 5.150160 14.804999 -13.055527 -10.783583 -29.545721 13.443552 42.213070 -7.618350 0.192000 -18.430800 -20.947557 4.883721 -2.553075 -43.820616 3.126587 -12.215580 -23.605610 -39.666412 4.096947 -3.081735 3.229717 0.642590 -0.199130 0.321220 0.212820 -9.909255 6.549695 8.809858 4.176188 1.722060 -7.186263 -27.411597 37.046578 -6.683702 2.136303 -1.847956 0.109680 0.143740 -0.183490 -0.050000 
0.105450 17.424000 -2.947900 -2.841636 -20.495395 -4.606479 -14.367596 12.822951 3.229002 2.899234 -2.410350 -15.081836 -8.780953 4.988989 11.837879 -0.338730 3.216690 3.530175 0.628640 0.442330 0.426390 18.801908 -12.153206 2.887951 -5.525183 1.178520 -5.941692 6.575596 -6.423972 19.159018 -0.725975 -4.227611 2.917720 0.084280 -0.066220 0.268660 -5.277937 1.155623 -7.217973 34.708957 -12.043346 30.925607 -32.899508 -0.341702 6.303965 14.653936 -12.518791 -11.074765 -28.165808 12.687933 43.114907 -7.972010 0.464630 -18.648850 -21.530788 3.738839 -2.301388 -44.304680 3.159963 -12.633131 -22.244087 -38.603632 3.286066 -3.084500 3.183100 0.668190 -0.199850 0.330280 0.210270 -8.948180 7.315382 9.339975 2.273381 2.725722 -5.893520 -25.525059 28.912884 -4.764639 2.224353 -1.772476 0.086930 0.162040 -0.191470 -0.073250 
0.095840 17.392220 -2.950480 -3.246917 -21.091483 -2.766371 -14.359063 12.753279 3.231451 3.738993 -2.513547 -17.634613 -9.197053 5.297989 13.510191 -0.329221 3.293578 3.471637 0.643510 0.469690 0.434760 18.819814 -12.108750 2.920590 -4.767378 1.761739 -7.686016 6.620567 -6.235260 19.265455 -0.693049 -4.089656 2.947314 0.095610 -0.067700 0.292440 -5.325421 1.258365 -7.219623 35.246690 -11.216750 28.538677 -32.319317 0.629736 7.294434 14.392212 -12.150787 -11.458229 -26.728866 11.950560 42.769722 -8.218120 1.095640 -18.057640 -21.666605 2.821817 -1.863812 -45.736363 3.688608 -13.258734 -20.940054 -37.531896 2.470874 -3.110814 3.194566 0.642660 -0.179390 0.336100 0.217580 -8.177916 8.284539 9.731576 -0.588582 5.521541 -3.817849 -22.179278 18.312848 -2.673094 2.361513 -1.668021 0.108140 0.133100 -0.206970 -0.067690 
0.078590 17.360690 -2.968760 -3.774196 -21.825882 -1.714492 -14.401650 12.832328 3.292909 5.346716 -2.412159 -19.922813 -10.151263 6.044206 15.858465 -0.262164 3.637606 3.326117 0.616580 0.445950 0.409240 18.773772 -11.947109 2.946344 -3.890795 2.264634 -8.575911 6.625228 -6.121252 19.748408 -0.656422 -4.018977 2.984803 0.075500 -0.048160 0.296710 -5.185459 0.896836 -7.290964 34.658207 -10.527321 28.103866 -30.537186 1.391896 7.272934 14.352038 -11.653153 -12.219192 -25.557919 11.364369 43.246891 -8.513730 1.463330 -16.142060 -22.159539 1.301326 -1.097994 -47.579884 4.746911 -14.128965 -18.816229 -36.439945 1.442332 -3.135582 3.180804 0.614120 -0.152050 0.319850 0.225750 -7.464976 10.098270 9.940379 -2.051913 6.834676 -3.800886 -22.863145 13.722818 -2.402180 2.453720 -1.615875 0.111570 0.114250 -0.208350 -0.057630 
0.061930 17.331270 -3.010770 -4.642228 -22.969114 -1.817980 -14.556822 13.188221 3.425489 7.850133 -1.887305 -21.679974 -11.262949 7.234267 18.843318 -0.163926 4.310206 3.046787 0.556610 0.364990 0.375430 18.599283 -11.567261 2.960747 -2.791512 2.852791 -8.536916 6.681900 -6.118332 21.030114 -0.634236 -4.037467 2.975730 0.027230 -0.038930 0.314900 -4.662675 -0.274453 -7.478780 32.108491 -10.146759 31.861383 -27.398057 2.086055 5.239987 15.240996 -11.481728 -12.966184 -24.725596 10.986725 42.305464 -9.710630 2.211380 -15.095360 -22.648826 1.312829 -1.380547 -49.925792 5.344450 -14.759039 -17.107687 -35.801768 0.732917 -3.187483 3.157116 0.611770 -0.134230 0.301320 0.204940 -8.671455 11.711612 10.136128 0.675305 8.111687 -5.447949 -27.804695 12.136212 -3.310333 2.526128 -1.674405 0.101880 0.078710 -0.173590 -0.067110 
0.024240 17.260140 -3.032480 -5.608180 -23.508716 -0.688302 -14.724347 13.297578 3.679394 10.459067 -1.458122 -25.019061 -12.625537 8.768375 22.312596 -0.039976 5.157021 2.713900 0.513340 0.297110 0.372140 18.468054 -11.117325 2.962305 -1.660857 3.816034 -9.699368 7.460112 -6.340047 22.887575 -0.619077 -4.104908 2.958871 -0.015540 -0.019590 0.333330 -4.233283 -1.177003 -7.763079 29.993842 -8.735556 33.409043 -23.959835 3.315498 2.785404 15.446503 -10.697723 -12.797969 -22.219370 10.324497 42.363274 -11.178220 3.636860 -13.716620 -22.556196 1.990946 -1.649836 -51.925256 5.781607 -14.061475 -17.079756 -32.159137 0.460140 -3.286352 3.079586 0.602420 -0.100080 0.284680 0.198100 -9.323542 11.801244 9.518409 5.542552 8.798561 -7.720829 -35.778979 16.902183 -6.045963 2.465630 -1.781066 0.090150 0.052870 -0.165410 -0.079260 
-0.017400 17.181140 -3.064300 -6.065667 -24.051686 -0.123451 -14.932976 13.326071 3.992923 12.796630 -0.948106 -28.104880 -14.022865 10.552691 25.810908 0.097044 6.128232 2.336622 0.446690 0.223640 0.335020 18.328909 -10.628430 2.920836 -1.101485 4.925381 -10.991257 8.263998 -6.732711 25.491748 -0.631804 -4.281691 2.895260 -0.067110 0.002760 0.342890 -3.760551 -2.050588 -8.074988 26.792811 -7.397819 35.653693 -20.025347 4.432066 0.661296 15.210435 -10.282274 -12.742894 -20.628423 10.164290 41.513951 -12.468260 5.038360 -14.195720 -21.276706 2.882748 -1.554447 -54.790405 6.391262 -14.054397 -18.143442 -30.388200 0.472534 -3.370250 3.006629 0.612960 -0.085030 0.276220 0.178140 -10.059282 11.954328 8.816469 11.510305 9.629303 -10.423236 -46.720957 23.549296 -11.127726 2.359520 -1.792039 0.073150 0.050710 -0.123850 -0.084150 
-0.062600 17.100960 -3.106260 -6.389820 -23.954657 -0.112535 -15.109238 13.199243 4.299756 14.843822 -0.566106 -30.884297 -15.093945 12.283638 29.223222 0.272883 7.014943 2.004544 0.448460 0.230170 0.346080 18.244625 -10.202783 2.887300 -0.891294 6.014016 -12.107104 9.520287 -7.471607 28.679926 -0.714385 -4.633474 2.778380 -0.085980 -0.029870 0.327960 -3.442700 -2.585514 -8.345041 24.221318 -6.632633 37.702014 -16.207399 5.084847 -0.351520 14.186452 -10.074401 -12.677119 -19.820311 10.098196 41.178752 -12.682660 5.450290 -16.012070 -19.840479 3.208057 -0.869190 -57.316914 6.947108 -14.680009 -20.320581 -31.354418 1.037254 -3.346826 2.996059 0.626050 -0.122380 0.302100 0.180470 -9.299580 12.183019 8.198559 17.290329 10.151745 -12.980644 -61.748210 31.420194 -20.444430 2.234232 -1.690162 0.086430 0.046900 -0.146750 -0.080060 
-0.100590 17.009420 -3.141630 -7.009332 -23.937850 -0.533643 -15.301396 13.102059 4.580507 16.853853 -0.109400 -33.347285 -15.452674 13.986170 33.079467 0.476873 7.912995 1.676863 0.431940 0.234440 0.299550 18.161143 -9.727486 2.852557 -0.431041 6.957120 -12.586132 10.736063 -8.352782 31.795022 -0.830979 -5.085467 2.632269 -0.119170 -0.049830 0.331810 -3.110489 -3.260416 -8.588617 21.906914 -6.440678 40.625324 -12.676985 5.513293 -1.676786 13.090968 -10.221514 -12.945445 -19.979740 10.630001 40.458294 -12.359560 5.601340 -17.845180 -18.863428 3.370638 -0.091844 -58.828136 8.570395 -15.681265 -24.766197 -32.518268 2.176820 -3.298995 3.044571 0.631010 -0.160430 0.330880 0.194050 -7.833011 12.797914 8.130315 22.653574 10.320540 -14.616270 -80.559532 37.634127 -35.200587 2.127645 -1.497703 0.120160 0.026950 -0.151040 -0.047410 
